<?xml version="1.0" encoding="utf-8"?>
<!-- Generator: Adobe Illustrator 17.0.0, SVG Export Plug-In . SVG Version: 6.00 Build 0)  -->
<!DOCTYPE svg PUBLIC "-//W3C//DTD SVG 1.1//EN" "http://www.w3.org/Graphics/SVG/1.1/DTD/svg11.dtd">
<svg version="1.1" id="Layer_1" xmlns="http://www.w3.org/2000/svg" xmlns:xlink="http://www.w3.org/1999/xlink" x="0px" y="0px"
	 width="50px" height="50px" viewBox="0 0 50 50" enable-background="new 0 0 50 50" xml:space="preserve">
<g>
	<path d="M23.425,33.01c0.046,0.226-0.046,0.428-0.06,0.635c-0.012,0.174-0.01,0.338,0.014,0.509c0.024,0.17,0.079,0.34,0.048,0.516
		c-0.002,0.009-0.004,0.02,0,0.027c0.107,0.175,0.159,0.365,0.21,0.564c0.027,0.104,0.095,0.194,0.082,0.322
		c-0.012,0.118,0.063,0.226,0.111,0.335c0.065,0.148,0.152,0.295,0.144,0.459c-0.011,0.216-0.187,0.356-0.298,0.523
		c-0.029,0.044-0.101,0.126-0.207,0.09c-0.191-0.065-0.377,0.032-0.562,0.056c-0.155,0.021-0.247-0.027-0.335-0.115
		c-0.181-0.183-0.383-0.327-0.607-0.459c-0.19-0.112-0.319-0.32-0.431-0.522c-0.156-0.281-0.316-0.569-0.381-0.877
		c-0.109-0.512-0.325-1.001-0.316-1.541c0.002-0.132-0.102-0.267-0.128-0.411c-0.146-0.787-0.23-1.582-0.316-2.376
		c-0.019-0.172-0.061-0.341-0.088-0.511c-0.014-0.09-0.043-0.19-0.017-0.271c0.043-0.135,0.041-0.24-0.05-0.355
		c-0.059-0.074-0.071-0.178,0.03-0.239c0.109-0.066,0.096-0.156,0.046-0.235c-0.185-0.29-0.189-0.618-0.226-0.942
		c-0.06-0.527-0.132-1.054-0.147-1.584c-0.007-0.255-0.03-0.501-0.105-0.768c-0.107,0.058-0.118,0.147-0.146,0.23
		c-0.298,0.89-0.413,1.812-0.492,2.742c-0.091,1.071-0.106,2.149-0.284,3.213c-0.066,0.395-0.07,0.796-0.064,1.196
		c0.011,0.712-0.104,1.411-0.203,2.112c-0.074,0.524-0.178,1.044-0.22,1.573c-0.023,0.291-0.141,0.568-0.166,0.861
		c-0.044,0.537-0.243,1.045-0.271,1.587c-0.018,0.343-0.093,0.689-0.186,1.021c-0.058,0.205-0.187,0.394-0.303,0.579
		c-0.08,0.127-0.23,0.141-0.422,0.058c-0.115-0.05-0.205-0.131-0.338-0.002c-0.082,0.079-0.401-0.031-0.487-0.148
		c-0.127-0.173-0.289-0.304-0.467-0.415c-0.097-0.061-0.122-0.153-0.162-0.244c-0.045-0.101-0.11-0.119-0.183,0.005
		c-0.106-0.382-0.091-0.751-0.133-1.113c-0.078-0.671-0.049-1.35-0.096-2.025c-0.038-0.543-0.038-1.091-0.031-1.637
		c0.006-0.492-0.026-0.984-0.041-1.476c-0.002-0.055-0.019-0.117,0.001-0.163c0.075-0.178,0.039-0.356,0.009-0.532
		c-0.069-0.4,0.012-0.802-0.021-1.203c-0.007-0.082-0.007-0.158-0.041-0.236c-0.028-0.065-0.049-0.147-0.034-0.214
		c0.068-0.316-0.018-0.635,0.029-0.95c0.008-0.054,0.019-0.113,0.005-0.163c-0.085-0.303,0.024-0.616-0.056-0.918
		c-0.002-0.008-0.002-0.019,0.001-0.027c0.115-0.291-0.047-0.575-0.022-0.867c0.026-0.298-0.015-0.601,0.002-0.9
		c0.021-0.364,0.029-0.727,0.023-1.092c-0.002-0.118-0.01-0.237-0.012-0.355c-0.011-0.51-0.01-1.02,0.019-1.53
		c0.014-0.254-0.055-0.509-0.023-0.766c0.041-0.33-0.01-0.668,0.107-0.995c0.056-0.157,0.075-0.349,0.057-0.509
		c-0.024-0.215-0.099-0.422-0.035-0.642c-0.142-0.403-0.031-0.815-0.043-1.222c-0.013-0.439,0.102-0.87,0.086-1.304
		c-0.015-0.411-0.005-0.82,0.027-1.228c0.03-0.389,0.06-0.782,0.061-1.167c0.001-0.44,0.064-0.873,0.082-1.31
		c0.042-0.998,0.051-1.999,0.165-2.994c0.03-0.264,0.094-0.518,0.136-0.777c0.039-0.24,0.05-0.487,0.047-0.73
		c-0.002-0.148,0.031-0.29,0.044-0.434c0.007-0.082,0.052-0.152,0.167-0.206c0.104-0.049,0.26-0.118,0.317-0.268
		c0.029-0.077,0.091-0.142,0.189-0.132c0.142,0.014,0.265-0.037,0.386-0.1c0.12-0.063,0.223-0.08,0.337,0.04
		c0.097,0.102,0.254,0.124,0.375,0.214c0.224,0.165,0.284,0.377,0.242,0.62c-0.064,0.372-0.026,0.742-0.026,1.114
		c0.001,0.572,0.081,1.144-0.022,1.721c-0.05,0.279,0,0.581-0.026,0.872c-0.067,0.745-0.051,1.493-0.122,2.239
		c-0.057,0.597-0.039,1.201-0.066,1.802c-0.028,0.61-0.085,1.219-0.102,1.83c-0.018,0.657-0.057,1.312-0.092,1.968
		c-0.043,0.811-0.04,1.625-0.073,2.437c-0.027,0.675,0.009,1.349,0.005,2.023c-0.001,0.1-0.006,0.199,0.066,0.292
		c0.086-0.12,0.095-0.25,0.12-0.373c0.093-0.465,0.159-0.936,0.376-1.367c0.034-0.067,0.033-0.141,0.04-0.214
		c0.017-0.183,0.043-0.364,0.14-0.525c0.059-0.098,0.05-0.212,0.081-0.317c0.118-0.402,0.154-0.825,0.315-1.216
		c0.164-0.396,0.295-0.806,0.516-1.177c0.15-0.253,0.311-0.493,0.605-0.601c0.025-0.009,0.05-0.027,0.067-0.047
		c0.229-0.276,0.535-0.315,0.865-0.289c0.206,0.016,0.41,0.003,0.621,0.038c0.232,0.038,0.327,0.168,0.431,0.322
		c0.206,0.304,0.34,0.637,0.464,0.984c0.16,0.45,0.241,0.915,0.354,1.373c0.058,0.238,0.063,0.486,0.043,0.735
		c-0.018,0.217-0.006,0.438,0.048,0.651c0.043,0.171,0.021,0.346,0.034,0.519c0.053,0.656,0.078,1.314,0.142,1.968
		c0.077,0.79,0.075,1.588,0.208,2.372c0.058,0.342,0.132,0.694,0.12,1.029c-0.013,0.373,0.127,0.714,0.115,1.081
		c-0.008,0.232,0.078,0.467,0.121,0.7C23.164,33.005,23.294,33.013,23.425,33.01z"/>
	<path d="M26.515,19.434c-0.017-0.002-0.054-0.012-0.088-0.007c-0.892,0.15-1.779,0.08-2.656-0.091
		c-0.527-0.102-1.039-0.27-1.508-0.553c-0.142-0.086-0.303-0.158-0.463-0.223c-0.532-0.217-1.047-0.469-1.553-0.743
		c-0.29-0.157-0.534-0.376-0.831-0.521c-0.242-0.118-0.406-0.363-0.602-0.554c-0.052-0.051-0.095-0.111-0.146-0.164
		c-0.117-0.121-0.199-0.248-0.181-0.433c0.011-0.115-0.018-0.241-0.139-0.308c-0.093-0.051-0.089-0.119-0.063-0.209
		c0.06-0.202,0.154-0.389,0.26-0.568c0.042-0.072,0.082-0.142,0.097-0.224c0.008-0.045,0.012-0.107,0.058-0.117
		c0.222-0.047,0.257-0.269,0.377-0.407c0.344-0.396,0.674-0.792,1.122-1.091c0.385-0.257,0.815-0.433,1.187-0.707
		c0.077-0.057,0.1-0.102,0.031-0.173c-0.18-0.184-0.305-0.408-0.455-0.614c-0.199-0.271-0.291-0.589-0.417-0.891
		c-0.133-0.319-0.228-0.653-0.334-0.983c-0.064-0.199-0.032-0.413-0.091-0.615c-0.021-0.072,0.032-0.131,0.114-0.094
		c0.168,0.075,0.327,0.05,0.489-0.015c0.079-0.032,0.143-0.017,0.162,0.084c0.019,0.098,0.064,0.196,0.061,0.293
		c-0.007,0.196,0.077,0.311,0.233,0.427c0.282,0.211,0.515,0.472,0.742,0.75c0.27,0.331,0.398,0.734,0.662,1.06
		c0.114,0.14,0.199,0.182,0.39,0.099c0.461-0.201,0.955-0.291,1.458-0.309c0.327-0.012,0.654,0.019,0.979,0.041
		c0.33,0.022,0.669,0.042,0.986,0.162c0.437,0.166,0.91,0.198,1.347,0.36c0.468,0.174,0.963,0.29,1.379,0.583
		c0.381,0.268,0.735,0.572,1.08,0.884c0.291,0.263,0.568,0.542,0.861,0.803c0.164,0.146,0.28,0.337,0.458,0.47
		c0.037,0.028,0.167,0.102,0.018,0.184c-0.035,0.02,0.011,0.064,0.041,0.081c0.055,0.031,0.109,0.08,0.177,0.061
		c0.198-0.055,0.331,0.142,0.518,0.131c0.021-0.001,0.051,0.026,0.064,0.048c0.128,0.218,0.365,0.347,0.453,0.607
		c0.045,0.133,0.045,0.231-0.028,0.325c-0.139,0.179-0.284,0.355-0.443,0.516c-0.173,0.175-0.348,0.358-0.553,0.489
		c-0.295,0.187-0.56,0.425-0.895,0.55c-0.249,0.093-0.453,0.271-0.69,0.389c-0.218,0.108-0.418,0.258-0.662,0.301
		c-0.195,0.035-0.355,0.143-0.529,0.22c-0.234,0.103-0.472,0.19-0.716,0.268c-0.522,0.167-1.047,0.316-1.584,0.427
		C26.639,19.444,26.588,19.463,26.515,19.434z M28.655,14.665c0.028-0.179-0.023-0.279-0.159-0.366
		c-0.12-0.077-0.246-0.163-0.346-0.263c-0.449-0.446-1.025-0.607-1.612-0.743c-0.36-0.083-0.722-0.156-1.084-0.227
		c-0.165-0.033-0.334-0.072-0.501-0.071c-0.757,0.005-1.431,0.31-2.104,0.612c-0.097,0.044-0.185,0.114-0.286,0.158
		c-0.035,0.015-0.052,0.051-0.047,0.091c0.007,0.05,0.048,0.054,0.083,0.044c0.179-0.051,0.373,0.007,0.541-0.044
		c0.466-0.141,0.942-0.06,1.411-0.087c0.494-0.029,0.994,0.017,1.49,0.033c0.618,0.02,1.207,0.172,1.767,0.425
		C28.09,14.354,28.357,14.51,28.655,14.665z M23.495,16.884c-0.059-0.089-0.111-0.172-0.169-0.251
		c-0.316-0.431-0.582-0.885-0.661-1.425c-0.015-0.1-0.058-0.144-0.168-0.115c-0.094,0.025-0.198,0.079-0.289,0.005
		c-0.137-0.111-0.254-0.054-0.373,0.026c-0.099,0.067-0.202,0.111-0.326,0.127c-0.279,0.037-0.49,0.228-0.729,0.357
		c-0.023,0.012-0.042,0.036-0.057,0.058c-0.031,0.046-0.06,0.095-0.03,0.152c0.029,0.055,0.08,0.077,0.138,0.064
		c0.064-0.014,0.136-0.04,0.183,0.009c0.154,0.16,0.372,0.192,0.557,0.284c0.44,0.218,0.871,0.46,1.356,0.576
		C23.111,16.795,23.277,16.905,23.495,16.884z M27.967,15.318c-0.048,0.039-0.046,0.075-0.044,0.112
		c0.016,0.245-0.117,0.611-0.263,0.822c-0.155,0.225-0.287,0.466-0.427,0.7c-0.054,0.09-0.021,0.146,0.079,0.139
		c0.136-0.009,0.271-0.028,0.405-0.052c0.554-0.099,1.087-0.258,1.574-0.549c0.061-0.036,0.152-0.063,0.155-0.142
		c0.004-0.09-0.098-0.091-0.158-0.127c-0.078-0.046-0.155-0.095-0.23-0.148c-0.164-0.116-0.328-0.236-0.514-0.312
		c-0.142-0.058-0.257-0.135-0.334-0.266C28.152,15.395,28.064,15.346,27.967,15.318z M23.922,14.876
		c-0.153,0.21-0.174,0.371-0.11,0.582c0.047,0.155,0.172,0.252,0.254,0.378c0.199,0.31,0.443,0.577,0.709,0.827
		c0.254,0.239,0.739,0.145,0.892-0.165c0.034-0.07,0.026-0.117-0.054-0.15c-0.68-0.283-1.255-0.694-1.616-1.357
		C23.979,14.96,23.957,14.931,23.922,14.876z M22.767,17.602c-0.141-0.193-0.374-0.153-0.559-0.239
		C22.353,17.54,22.567,17.552,22.767,17.602z"/>
	<path d="M28.705,21.659c0.153,0.136,0.333,0.072,0.492,0.075c0.194,0.005,0.381,0.121,0.586,0.033
		c0.072-0.031,0.15,0.058,0.195,0.127c0.086,0.133,0.185,0.248,0.33,0.321c0.038,0.019,0.074,0.058,0.093,0.096
		c0.129,0.262,0.285,0.529,0.276,0.821c-0.012,0.369,0.132,0.714,0.119,1.078c-0.011,0.319,0.074,0.631,0.066,0.95
		c-0.001,0.044,0.004,0.102,0.031,0.129c0.148,0.147,0.111,0.336,0.135,0.514c0.036,0.272,0.019,0.545,0.052,0.816
		c0.012,0.098,0.01,0.202,0.092,0.28c0.043,0.04,0.044,0.097,0.04,0.153c-0.011,0.165,0.003,0.326,0.052,0.487
		c0.04,0.132-0.021,0.268-0.02,0.406c0.002,0.4-0.051,0.793-0.124,1.19c-0.05,0.272-0.134,0.522-0.22,0.778
		c-0.021,0.061-0.042,0.122-0.022,0.187c0.018,0.057,0.013,0.11-0.026,0.155c-0.21,0.242-0.304,0.558-0.527,0.796
		c-0.166,0.177-0.346,0.321-0.563,0.424c-0.017,0.008-0.037,0.012-0.049,0.024c-0.288,0.278-0.654,0.236-1.007,0.243
		c-0.054,0.001-0.112-0.008-0.163,0.006c-0.338,0.096-0.631,0-0.894-0.211c-0.214-0.172-0.421-0.351-0.628-0.531
		c-0.063-0.055-0.131-0.097-0.204-0.136c-0.236-0.127-0.267-0.111-0.278,0.166c-0.017,0.401-0.043,0.8-0.089,1.199
		c-0.033,0.289,0.001,0.583,0.007,0.873c0.007,0.31-0.009,0.62-0.002,0.93c0.006,0.247,0.016,0.493,0.064,0.731
		c0.058,0.284-0.048,0.527-0.163,0.76c-0.058,0.118-0.209,0.196-0.325,0.266c-0.104,0.063-0.261,0.055-0.383-0.048
		c-0.046-0.039-0.058-0.023-0.134,0.13c-0.093-0.05-0.175-0.233-0.304-0.05c-0.011,0.016-0.05-0.011-0.064-0.035
		c-0.129-0.221-0.362-0.362-0.466-0.603c-0.023-0.053-0.071-0.094-0.13-0.049c-0.056,0.043-0.027,0.1,0.005,0.146
		c0.059,0.084,0.148,0.135,0.227,0.197c0.033,0.026,0.045,0.056,0.015,0.091c-0.02,0.024-0.048,0.02-0.075,0.012
		c-0.242-0.068-0.313-0.161-0.342-0.422c-0.018-0.161-0.093-0.314-0.062-0.482c-0.068-0.01-0.053,0.039-0.065,0.064
		c-0.022,0.047-0.03,0.12-0.104,0.097c-0.067-0.021-0.047-0.086-0.044-0.14c0.018-0.293,0.004-0.584-0.022-0.876
		c-0.027-0.297,0.028-0.596,0-0.896c-0.037-0.398,0.008-0.797-0.003-1.197c-0.011-0.37,0.002-0.744-0.011-1.115
		c-0.008-0.219-0.034-0.437-0.05-0.656c-0.011-0.15-0.062-0.305,0.067-0.44c0.029-0.031,0.026-0.107,0.017-0.158
		c-0.061-0.351-0.035-0.713-0.124-1.06c-0.076-0.294-0.045-0.598-0.073-0.896c-0.026-0.283-0.077-0.561-0.111-0.842
		c-0.019-0.155-0.042-0.312-0.017-0.464c0.026-0.158,0.005-0.31-0.016-0.462c-0.099-0.696-0.117-1.395-0.066-2.094
		c0.019-0.252,0.066-0.503,0.207-0.726c0.095-0.15,0.124-0.329,0.099-0.497c-0.018-0.123,0.022-0.205,0.104-0.252
		c0.147-0.084,0.281-0.199,0.488-0.144c0.094,0.025,0.246,0.128,0.34-0.037c0.159,0.07,0.342,0.026,0.499,0.11
		c0.056,0.03,0.114,0.071,0.174,0.077c0.303,0.031,0.449,0.224,0.575,0.479c0.203,0.412,0.348,0.847,0.446,1.286
		c0.104,0.464,0.226,0.93,0.261,1.408c0.012,0.158,0.081,0.299,0.111,0.447c0.063,0.303,0.175,0.596,0.189,0.908
		c0.006,0.13,0.009,0.26,0.065,0.375c0.149,0.308,0.148,0.653,0.255,0.972c0.162,0.485,0.305,0.978,0.545,1.433
		c0.05,0.095,0.079,0.169,0.239,0.137c0.099-0.02,0.135-0.035,0.16-0.117c0.095-0.315,0.155-0.637,0.22-0.959
		c0.096-0.479,0.073-0.96,0.038-1.442c-0.018-0.246-0.027-0.493-0.038-0.739c-0.019-0.401-0.037-0.802-0.055-1.203
		c-0.002-0.054-0.019-0.132,0.009-0.159c0.166-0.163,0.061-0.322,0.025-0.494c-0.046-0.223-0.025-0.452,0.005-0.679
		c0.056-0.425,0.105-0.85,0.152-1.276c0.015-0.136,0.015-0.257-0.112-0.37C28.575,21.978,28.64,21.821,28.705,21.659z"/>
	<path d="M32.076,34.547c-0.187,0.111-0.367,0.236-0.563,0.329c-0.26,0.123-0.461,0.312-0.645,0.521
		c-0.079,0.09-0.147,0.184-0.259,0.236c-0.04,0.019-0.097,0.046-0.106,0.081c-0.055,0.198-0.224,0.25-0.382,0.317
		c-0.049,0.021-0.124,0.036-0.091,0.106c0.036,0.079,0.105,0.047,0.162,0.011c0.039-0.024,0.079-0.047,0.116-0.073
		c0.045-0.031,0.101-0.077,0.134-0.007c0.03,0.062-0.036,0.094-0.085,0.118c-0.287,0.141-0.542,0.328-0.792,0.525
		c-0.238,0.188-0.478,0.369-0.682,0.598c-0.093,0.105-0.237,0.168-0.364,0.238c-0.423,0.232-0.849,0.456-1.273,0.686
		c-0.527,0.287-1.088,0.507-1.608,0.81c-0.062,0.036-0.136,0.061-0.207,0.07c-0.465,0.061-0.861,0.292-1.263,0.507
		c-0.105,0.056-0.213,0.104-0.327,0.141c-0.08,0.026-0.149,0.077-0.165-0.072c-0.012-0.113-0.105-0.065-0.171-0.039
		c-0.266,0.104-0.49,0.283-0.742,0.413c-0.477,0.246-0.946,0.506-1.434,0.733c-0.319,0.148-0.593,0.391-0.888,0.591
		c-0.374,0.253-0.638,0.625-0.992,0.901c-0.132,0.103-0.138,0.293-0.265,0.411c-0.242,0.223-0.451,0.478-0.649,0.743
		c-0.055,0.073-0.114,0.142-0.15,0.228c-0.041,0.097-0.111,0.166-0.207,0.208c-0.017,0.007-0.042,0.006-0.051,0.018
		c-0.13,0.169-0.324,0.179-0.511,0.209c-0.048-0.038-0.019-0.081-0.006-0.123c0.035-0.113,0.013-0.186-0.114-0.233
		c-0.128-0.047-0.187-0.183-0.111-0.277c0.102-0.125,0.139-0.295,0.293-0.387c0.181-0.108,0.294-0.296,0.44-0.445
		c0.469-0.477,0.974-0.91,1.481-1.343c0.12-0.103,0.26-0.164,0.388-0.249c0.258-0.17,0.515-0.344,0.757-0.536
		c0.223-0.177,0.474-0.309,0.712-0.461c0.382-0.244,0.77-0.479,1.163-0.705c0.411-0.236,0.832-0.454,1.246-0.685
		c0.477-0.266,0.948-0.542,1.427-0.805c0.348-0.191,0.707-0.363,1.057-0.551c0.313-0.168,0.621-0.347,0.931-0.52
		c0.302-0.169,0.6-0.347,0.907-0.505c0.479-0.248,0.932-0.539,1.392-0.819c0.074-0.045,0.156-0.046,0.232-0.076
		c0.174-0.067,0.302-0.199,0.458-0.289c0.324-0.187,0.679-0.319,0.989-0.534c0.06-0.042,0.135-0.048,0.182-0.014
		c0.19,0.138,0.359,0.067,0.532-0.03c0.021-0.012,0.051-0.009,0.078-0.012C32.058,34.524,32.067,34.535,32.076,34.547z"/>
	<path d="M31.964,9.029c0.049,0.153-0.029,0.285-0.107,0.383c-0.217,0.273-0.347,0.599-0.559,0.874
		c-0.069,0.09-0.136,0.148-0.246,0.193c-0.184,0.076-0.311,0.242-0.421,0.405c-0.084,0.125-0.151,0.247-0.333,0.241
		c-0.066-0.002-0.133,0.056-0.203,0.077c-0.1,0.029-0.208,0.125-0.297-0.029c-0.021-0.037-0.092-0.048-0.127-0.025
		c-0.114,0.074-0.175,0.068-0.194-0.082c-0.005-0.039-0.049-0.075-0.081-0.107c-0.186-0.192-0.21-0.347-0.108-0.583
		c0.176-0.409,0.356-0.817,0.511-1.234c0.051-0.139,0.114-0.286,0.198-0.381c0.167-0.191,0.122-0.464,0.303-0.642
		c0.042-0.041,0.009-0.158,0.012-0.24c0.006-0.156,0.109-0.3,0.253-0.345c0.137-0.042,0.238,0.005,0.335,0.117
		c0.221,0.254,0.45,0.503,0.754,0.666c0.047,0.025,0.105,0.066,0.117,0.111C31.827,8.632,32,8.8,31.964,9.029z"/>
	<path d="M26.108,7.184c0.275-0.251,0.485-0.247,0.723,0.011c0.069,0.074,0.137,0.149,0.228,0.194
		c0.223,0.111,0.356,0.356,0.622,0.408c0.075,0.015,0.122,0.107,0.162,0.179c0.044,0.08,0.087,0.16,0.151,0.228
		c0.108,0.114,0.113,0.251,0.124,0.403c0.036,0.492-0.081,0.963-0.183,1.433c-0.056,0.257-0.217,0.49-0.413,0.678
		c-0.094,0.09-0.211,0.152-0.341,0.038c-0.039-0.035-0.086-0.034-0.096,0.033c-0.006,0.042,0.021,0.108-0.039,0.112
		c-0.07,0.005-0.179,0.005-0.208-0.037c-0.14-0.2-0.408-0.228-0.544-0.433c-0.067-0.102-0.116-0.196-0.128-0.32
		c-0.067-0.667-0.014-1.33,0.095-1.985C26.318,7.78,26.26,7.479,26.108,7.184z"/>
	<path d="M23.411,8.011c0.098,0.005,0.159,0.001,0.2,0.041c0.267,0.261,0.636,0.341,0.945,0.528
		c0.303,0.184,0.591,0.398,0.741,0.705c0.154,0.315,0.321,0.626,0.457,0.953c0.113,0.272,0.035,0.489-0.089,0.704
		c-0.072,0.126-0.241,0.112-0.372,0.14c-0.095,0.02-0.192,0.005-0.291,0.041c-0.089,0.033-0.203,0.016-0.265-0.089
		c-0.087-0.148-0.228-0.245-0.366-0.324c-0.342-0.195-0.489-0.527-0.65-0.852c-0.136-0.275-0.224-0.568-0.292-0.867
		c-0.039-0.172-0.122-0.324-0.234-0.46c-0.069-0.083-0.157-0.162-0.088-0.289C23.181,8.102,23.306,8.04,23.411,8.011z"/>
	<path d="M31.111,12.16c-0.063-0.11,0.015-0.196,0.069-0.305c0.092-0.186,0.14-0.394,0.213-0.59c0.124-0.334,0.321-0.628,0.531-0.91
		c0.164-0.22,0.337-0.43,0.412-0.701c0.047-0.17,0.225-0.264,0.259-0.444c0.007-0.037,0.058-0.034,0.093-0.043
		c0.121-0.033,0.21,0.043,0.309,0.084c0.156,0.066,0.054,0.182,0.052,0.281c-0.005,0.26,0.001,0.519,0.108,0.764
		c0.044,0.1,0.084,0.201,0.129,0.301c0.019,0.042,0.043,0.085,0.03,0.131c-0.101,0.344-0.15,0.696-0.331,1.027
		c-0.147,0.268-0.404,0.462-0.482,0.768c-0.012,0.049-0.047,0.089-0.098,0.061c-0.109-0.059-0.177-0.011-0.268,0.052
		c-0.096,0.066-0.223,0.101-0.307-0.043c-0.055-0.093-0.14-0.107-0.238-0.086c-0.045,0.01-0.092,0.024-0.135,0.017
		c-0.098-0.016-0.194-0.04-0.289-0.069C31.129,12.442,31.132,12.43,31.111,12.16z"/>
	<path d="M15.839,40.674c0.04,0.001,0.065,0.022,0.071,0.06c0.004,0.027-0.009,0.053-0.037,0.057
		c-0.042,0.006-0.063-0.023-0.069-0.06C15.799,40.705,15.81,40.683,15.839,40.674z"/>
	<path d="M15.083,22.668c-0.01,0.012-0.019,0.024-0.029,0.036c-0.013-0.011-0.032-0.02-0.036-0.033
		c-0.01-0.029,0.003-0.053,0.037-0.043C15.068,22.63,15.074,22.654,15.083,22.668z"/>
</g>
</svg>
